<svg version="1.2" baseProfile="tiny-ps" xmlns="http://www.w3.org/2000/svg" viewBox="0 0 20 18" width="20" height="18">
	<title>Cup</title>
	<style>
		tspan { white-space:pre }
		.shp0 { fill: #008ed6 } 
	</style>
	<path id="Cup" class="shp0" d="M10.01 10.31C7.26 10.31 5.02 7.91 5.02 4.97L5.02 1.78C5.02 1.51 5.24 1.28 5.52 1.28L14.51 1.28C14.79 1.28 15.01 1.51 15.01 1.78L15.01 4.97C15.01 7.91 12.77 10.31 10.01 10.31ZM6.02 2.28L6.02 4.97C6.02 7.36 7.81 9.31 10.01 9.31C12.22 9.31 14.01 7.36 14.01 4.97L14.01 2.28L6.02 2.28ZM10.01 14.76C9.73 14.76 9.51 14.53 9.51 14.26L9.51 10.12C9.51 9.84 9.73 9.62 10.01 9.62C10.29 9.62 10.51 9.84 10.51 10.12L10.51 14.26C10.51 14.53 10.29 14.76 10.01 14.76ZM12.05 14.76L8.01 14.76C7.74 14.76 7.51 14.54 7.51 14.26C7.51 13.99 7.74 13.76 8.01 13.76L12.05 13.76C12.33 13.76 12.55 13.99 12.55 14.26C12.55 14.54 12.33 14.76 12.05 14.76ZM13.55 16.28L6.52 16.28C6.24 16.28 6.02 16.06 6.02 15.78C6.02 15.5 6.24 15.28 6.52 15.28L13.55 15.28C13.82 15.28 14.05 15.5 14.05 15.78C14.05 16.06 13.82 16.28 13.55 16.28ZM14.62 6.78C14.35 6.78 14.12 6.56 14.12 6.28C14.12 6.01 14.35 5.78 14.62 5.78C15.51 5.78 16.16 5.54 16.54 5.07C16.99 4.53 17.03 3.74 17.01 3.28L14.71 3.28C14.43 3.28 14.21 3.06 14.21 2.78C14.21 2.51 14.43 2.28 14.71 2.28L17.46 2.28C17.69 2.28 17.9 2.45 17.95 2.68C17.96 2.75 18.3 4.51 17.32 5.7C16.74 6.42 15.83 6.78 14.62 6.78ZM5.48 6.78C4.27 6.78 3.37 6.42 2.78 5.7C1.81 4.51 2.14 2.75 2.16 2.68C2.2 2.45 2.41 2.28 2.65 2.28L5.4 2.28C5.67 2.28 5.9 2.51 5.9 2.78C5.9 3.06 5.67 3.28 5.4 3.28L3.09 3.28C3.07 3.74 3.11 4.53 3.56 5.07C3.95 5.54 4.59 5.78 5.48 5.78C5.76 5.78 5.98 6.01 5.98 6.28C5.98 6.56 5.76 6.78 5.48 6.78Z" />
</svg>