<svg version="1.2" baseProfile="tiny-ps" xmlns="http://www.w3.org/2000/svg" viewBox="0 0 14 19" width="14" height="19">
	<title>Energy</title>
	<style>
		tspan { white-space:pre }
		.shp0 { fill: #008ed6 } 
	</style>
	<path id="Energy" class="shp0" d="M8.56 2.34L8.56 2.34M8.56 2.34L7.43 8.27L11.52 8.28L5.96 16.32L7.08 9.8L3 9.78L8.56 2.34M8.56 1.34C8.53 1.34 8.51 1.34 8.48 1.34C8.3 1.36 8.19 1.42 8.05 1.51C7.97 1.56 7.9 1.62 7.84 1.69C7.82 1.72 7.8 1.74 7.79 1.76L2.18 9.18C1.96 9.48 1.93 9.88 2.1 10.22C2.27 10.55 2.61 10.76 2.99 10.77L5.88 10.79L4.97 16.13C4.88 16.59 5.13 17.05 5.56 17.23C5.69 17.29 5.82 17.32 5.95 17.32C6.27 17.32 6.53 17.17 6.72 16.9L12.33 8.87C12.55 8.56 12.59 8.16 12.42 7.83C12.25 7.5 11.9 7.28 11.53 7.28L8.64 7.28L9.54 2.57C9.56 2.5 9.57 2.42 9.57 2.34C9.57 1.8 9.14 1.36 8.6 1.34C8.58 1.34 8.57 1.34 8.56 1.34L8.56 1.34Z" />
</svg>