<svg version="1.2" baseProfile="tiny-ps" xmlns="http://www.w3.org/2000/svg" viewBox="0 0 36 35" width="36" height="35">
	<title>Like</title>
	<style>
		tspan { white-space:pre }
		.shp0 { fill: #008ed6 } 
	</style>
	<path id="Like" class="shp0" d="M21.01 33.98C11.92 33.98 11.85 33.61 10.72 32.76C10.13 32.31 9 32 4.89 31.73C4.59 31.71 4.3 31.6 4.11 31.37C4.02 31.26 1.97 28.26 1.97 23.46C1.97 18.73 3.44 16.57 3.5 16.47C3.69 16.18 4.01 16 4.35 16C7.73 16 12.41 11.69 15.56 4.16C16.11 2.86 16.22 2 18.22 2C19.36 2 20.63 2.81 21.26 3.86C22.55 5.99 21.9 10.58 21.29 13.03C23.35 13.01 27.09 12.99 28.86 12.99C31.33 12.99 32.97 14.46 33.02 16.61C33.03 17.32 32.94 18.23 32.74 18.7C33.28 19.24 33.98 20.06 34.01 21.12C34.05 22.48 33.16 23.51 32.59 24.11C32.72 24.5 32.98 25.03 32.96 25.65C32.89 27.19 31.7 28.19 30.96 28.71C31.02 29.13 31.07 29.92 30.94 30.54C30.4 33 26.8 33.98 21.01 33.98ZM5.42 29.7C9 30 10.92 30.4 11.93 31.16C12.71 31.75 12.59 31.98 21.01 31.98C23.58 31.98 28.6 31.88 28.98 30.11C29.14 29.41 28.39 28.72 28.39 28.71C28.19 28.21 28.41 27.62 28.91 27.41C28.92 27.4 30.91 26.69 30.96 25.57C30.99 24.86 30.5 24.43 30.49 24.41C30.2 23.96 30.3 23.34 30.74 23.03C30.75 23.03 32.04 22.24 32.01 21.17C31.99 20.32 30.87 19.73 30.83 19.71C30.58 19.56 30.4 19.32 30.35 19.03C30.29 18.75 30.35 18.45 30.53 18.22C30.53 18.22 31.04 17.42 31.02 16.66C30.98 15.04 29.24 14.99 28.86 14.99C26.34 14.99 19.86 15.01 19.86 15.01C19.51 15.01 19.21 14.85 19.02 14.57C18.83 14.29 18.82 13.94 18.93 13.62C19.91 10.81 20.45 6.4 19.55 4.89C19.28 4.44 19.22 4 18.22 4C18.08 4 17.75 4.11 17.41 4.93C14.06 12.92 9.07 17.55 4.98 17.97C4.63 18.77 3.97 20.44 3.97 23.46C3.97 26.54 4.95 28.93 5.42 29.7Z" />
</svg>