<svg version="1.2" baseProfile="tiny-ps" xmlns="http://www.w3.org/2000/svg" viewBox="0 0 12 19" width="12" height="19">
	<title>Mouse</title>
	<style>
		tspan { white-space:pre }
		.shp0 { fill: #008ed6 } 
	</style>
	<path id="Mouse" class="shp0" d="M6.03 2.78C7.95 2.78 9.51 4.34 9.51 6.26L9.51 13.31C9.51 15.22 7.95 16.78 6.03 16.78C4.12 16.78 2.51 15.22 2.51 13.31L2.51 6.26C2.51 4.34 4.12 2.78 6.03 2.78M6.03 1.78C3.56 1.78 1.51 3.78 1.51 6.26L1.51 13.31C1.51 15.78 3.56 17.78 6.03 17.78C8.51 17.78 10.51 15.78 10.51 13.31L10.51 6.26C10.51 3.78 8.51 1.78 6.03 1.78L6.03 1.78ZM6.02 4.78C6.29 4.78 6.52 5 6.52 5.28L6.52 7.78C6.52 8.06 6.29 8.28 6.02 8.28C5.74 8.28 5.52 8.06 5.52 7.78L5.52 5.28C5.52 5 5.74 4.78 6.02 4.78Z" />
</svg>