<svg version="1.2" baseProfile="tiny-ps" xmlns="http://www.w3.org/2000/svg" viewBox="0 0 35 35" width="35" height="35">
	<title>Settings</title>
	<style>
		tspan { white-space:pre }
		.shp0 { fill: #008ed6 } 
	</style>
	<path id="Settings" class="shp0" d="M34 17.08L34 19.08C34 20.18 32.95 20.86 32 21.08L29.4 21.73C29.21 22.32 28.96 22.89 28.69 23.44L30.08 25.76C30.59 26.59 30.86 27.81 30.08 28.59L28.66 30C27.88 30.78 26.56 30.64 25.77 30.09L23.51 28.65C22.93 28.95 22.33 29.21 21.7 29.41L21.12 32.02C20.95 32.97 20.12 34 19.02 34L17.02 34C15.91 34 15.23 32.95 15.02 32L14.38 29.44C13.69 29.22 13.04 28.95 12.42 28.62L10.1 30.09C9.31 30.64 7.99 30.78 7.21 30L5.79 28.59C5.01 27.81 5.28 26.59 5.79 25.76L7.26 23.32C7 22.81 6.78 22.28 6.6 21.73L4 21.08C3.05 20.86 2 20.18 2 19.08L2 17.08C2 15.98 3.03 15.14 3.98 14.97L6.55 14.4C6.74 13.8 6.98 13.23 7.25 12.68L5.79 10.25C5.27 9.42 5.01 8.2 5.79 7.42L7.21 6C7.99 5.22 9.31 5.36 10.1 5.92L12.41 7.38C13.03 7.06 13.68 6.78 14.36 6.57L15 4C15.22 3.05 15.9 2 17 2L19 2C20.1 2 20.94 3.03 21.11 3.98L21.69 6.58C22.32 6.79 22.93 7.05 23.51 7.35L25.77 5.92C26.56 5.36 27.88 5.22 28.66 6L30.08 7.42C30.86 8.2 30.59 9.42 30.08 10.25L28.69 12.56C28.99 13.15 29.25 13.76 29.45 14.4L32.02 14.97C32.97 15.14 34 15.98 34 17.08ZM32 18.94C31.92 19 31.76 19.08 31.55 19.13L27.84 20.06L27.5 21.11C27.35 21.58 27.14 22.06 26.9 22.54L26.4 23.52L28.36 26.79C28.49 26.99 28.54 27.17 28.56 27.27L27.25 28.59C27.12 28.55 26.97 28.49 26.91 28.45L23.61 26.35L22.59 26.88C22.1 27.13 21.59 27.34 21.09 27.51L20 27.86L19.17 31.58C19.13 31.78 19.03 31.94 18.96 32L17.16 32C17.09 31.91 17.01 31.75 16.96 31.55L16.04 27.87L14.98 27.53C14.43 27.36 13.88 27.13 13.35 26.85L12.32 26.31L9.03 28.4C8.89 28.49 8.75 28.55 8.62 28.55L7.31 27.27C7.33 27.17 7.38 27 7.49 26.82L9.53 23.41L9.05 22.43C8.82 21.97 8.64 21.54 8.5 21.11L8.16 20.06L4.48 19.14C4.25 19.09 4.09 19 4 18.94L4 17.08C4 17.08 4 17.08 4 17.08C4.04 17.08 4.2 16.96 4.34 16.94L8.11 16.1L8.46 15C8.6 14.55 8.79 14.08 9.05 13.57L9.53 12.59L7.51 9.22C7.38 9.02 7.33 8.84 7.31 8.73L8.62 7.42C8.75 7.46 8.89 7.51 8.96 7.56L12.32 9.7L13.34 9.15C13.87 8.88 14.42 8.65 14.97 8.47L16.03 8.13L16.94 4.48C16.99 4.25 17.08 4.09 17.14 4L19 4C18.99 4.02 19.12 4.19 19.14 4.34L19.98 8.13L21.07 8.48C21.58 8.65 22.09 8.86 22.59 9.12L23.62 9.66L26.84 7.6C26.97 7.51 27.12 7.46 27.25 7.46L28.56 8.73C28.54 8.84 28.49 9.01 28.38 9.19L26.4 12.48L26.91 13.47C27.18 14 27.39 14.5 27.54 15L27.89 16.1L31.58 16.92C31.81 16.96 31.98 17.09 32.02 17.16L32 18.94ZM18.01 24.01C14.69 24.01 11.99 21.31 11.99 18C11.99 14.69 14.69 11.99 18.01 11.99C21.33 11.99 24.04 14.69 24.04 18C24.04 21.31 21.33 24.01 18.01 24.01ZM18 14C15.79 14 14 15.79 14 18C14 20.21 15.79 22 18 22C20.21 22 22 20.21 22 18C22 15.79 20.21 14 18 14Z" />
</svg>