<svg version="1.2" baseProfile="tiny-ps" xmlns="http://www.w3.org/2000/svg" viewBox="0 0 19 18" width="19" height="18">
	<title>Speedometer</title>
	<style>
		tspan { white-space:pre }
		.shp0 { fill: #008ed6 } 
	</style>
	<path id="Speedometer" class="shp0" d="M12.96 16.15C12.79 16.15 12.62 16.07 12.53 15.92C12.38 15.68 12.46 15.37 12.69 15.23C14.78 13.94 16.02 11.72 16.02 9.27C16.02 5.42 12.89 2.28 9.03 2.28C5.18 2.28 2.04 5.42 2.04 9.27C2.04 11.69 3.27 13.91 5.32 15.2C5.55 15.34 5.63 15.65 5.48 15.89C5.33 16.12 5.02 16.19 4.79 16.05C2.44 14.57 1.04 12.04 1.04 9.27C1.04 4.87 4.63 1.28 9.03 1.28C13.44 1.28 17.02 4.87 17.02 9.27C17.02 12.07 15.6 14.61 13.22 16.08C13.14 16.13 13.04 16.15 12.96 16.15ZM16.37 9.78L15.45 9.78C15.18 9.78 14.95 9.56 14.95 9.28C14.95 9 15.18 8.78 15.45 8.78L16.37 8.78C16.64 8.78 16.87 9 16.87 9.28C16.87 9.56 16.64 9.78 16.37 9.78ZM2.62 9.77L1.7 9.77C1.43 9.77 1.2 9.54 1.2 9.27C1.2 8.99 1.43 8.77 1.7 8.77L2.62 8.77C2.89 8.77 3.12 8.99 3.12 9.27C3.12 9.54 2.89 9.77 2.62 9.77ZM9.02 3.43C8.74 3.43 8.52 3.2 8.52 2.93L8.52 2.01C8.52 1.74 8.74 1.51 9.02 1.51C9.3 1.51 9.52 1.74 9.52 2.01L9.52 2.93C9.52 3.2 9.3 3.43 9.02 3.43ZM5.85 4.21C5.68 4.21 5.51 4.12 5.42 3.96L4.96 3.17C4.82 2.93 4.91 2.62 5.15 2.48C5.38 2.35 5.69 2.43 5.83 2.67L6.29 3.46C6.42 3.7 6.34 4 6.1 4.14C6.02 4.19 5.94 4.21 5.85 4.21ZM15.38 13.41C15.3 13.41 15.21 13.38 15.13 13.34L14.34 12.88C14.1 12.74 14.02 12.44 14.16 12.2C14.3 11.96 14.6 11.88 14.84 12.02L15.63 12.47C15.87 12.61 15.96 12.92 15.82 13.16C15.72 13.32 15.56 13.41 15.38 13.41ZM3.51 6.55C3.43 6.55 3.34 6.53 3.26 6.48L2.47 6.03C2.23 5.89 2.15 5.58 2.29 5.34C2.42 5.1 2.73 5.02 2.97 5.16L3.76 5.62C4 5.76 4.08 6.06 3.94 6.3C3.85 6.46 3.68 6.55 3.51 6.55ZM2.72 13.41C2.55 13.41 2.38 13.32 2.29 13.16C2.15 12.92 2.23 12.61 2.47 12.47L3.26 12.02C3.5 11.88 3.8 11.96 3.94 12.2C4.08 12.44 4 12.74 3.76 12.88L2.97 13.34C2.89 13.38 2.8 13.41 2.72 13.41ZM14.59 6.55C14.42 6.55 14.25 6.46 14.16 6.3C14.02 6.06 14.1 5.76 14.34 5.62L15.13 5.16C15.37 5.02 15.68 5.1 15.82 5.34C15.96 5.58 15.87 5.89 15.63 6.03L14.84 6.48C14.76 6.53 14.68 6.55 14.59 6.55ZM12.25 4.21C12.17 4.21 12.08 4.19 12 4.14C11.76 4 11.68 3.7 11.82 3.46L12.27 2.67C12.41 2.43 12.72 2.35 12.96 2.48C13.2 2.62 13.28 2.93 13.14 3.17L12.68 3.96C12.59 4.12 12.42 4.21 12.25 4.21ZM9.02 8.28C9.57 8.28 10.01 8.73 10.01 9.28C10.01 9.83 9.57 10.28 9.02 10.28C8.46 10.28 8.02 9.83 8.02 9.28C8.02 8.73 8.46 8.28 9.02 8.28ZM12.9 7.03C13.04 7.27 12.96 7.58 12.72 7.71L9.26 9.71C9.02 9.85 8.71 9.77 8.57 9.53C8.44 9.29 8.52 8.99 8.76 8.85L12.22 6.85C12.46 6.71 12.77 6.79 12.9 7.03Z" />
</svg>